<svg xmlns="http://www.w3.org/2000/svg" viewBox="0 0 64 64"><defs><style>.cls-1{fill:#000842;}.cls-2{fill:#fff;}.cls-3{fill:#f6ae2d;stroke:#000842;stroke-miterlimit:10;}</style></defs><g id="Ebene_1" data-name="Ebene 1"><rect class="cls-1" width="64" height="64"/></g><g id="reserve"><path class="cls-2" d="M40.59,33.09v5h2.53v-5Zm0-7.48v5h2.53v-5Zm0,12.47h2.53v-5H40.59Zm0-12.47v5h2.53v-5Zm14.94,1.33h.59V18H7.67v8.9h.59c3,0,5.32,1.8,5.32,4.9s-2.37,4.91-5.32,4.91H7.67v8.89H56.12V36.75h-.59c-2.94,0-5.31-1.8-5.31-4.91S52.59,26.94,55.53,26.94ZM53.6,39.27V43H43.12V40.57H40.59V43H10.19V39.27c3.3-.33,5.92-3.87,5.92-7.43s-2.62-7.11-5.92-7.44V20.71h30.4v2.41h2.53V20.71H53.6V24.4c-3.3.33-5.92,3.89-5.92,7.44S50.3,38.94,53.6,39.27Zm-13-1.19h2.53v-5H40.59Zm0-7.48h2.53v-5H40.59Z"/><path class="cls-3" d="M53.6,24.4V20.71H43.12v2.41H40.59V20.71H10.19V24.4c3.3.33,5.92,3.89,5.92,7.44s-2.62,7.1-5.92,7.43V43h30.4V40.57h2.53V43H53.6V39.27c-3.3-.33-5.92-3.87-5.92-7.43S50.3,24.73,53.6,24.4ZM43.12,38.08H40.59v-5h2.53Zm0-7.48H40.59v-5h2.53Z"/></g></svg>