<svg xmlns="http://www.w3.org/2000/svg" viewBox="0 0 64 64"><defs><style>.cls-1{fill:#000842;}.cls-2{fill:#fff;}</style></defs><title>Zeichenfläche 1</title><g id="Ebene_1" data-name="Ebene 1"><rect class="cls-1" width="64" height="64"/></g><g id="musterprojekt"><path class="cls-2" d="M18.4,16.54H11.68V38.76c0,1.62,0,3.41-2.39,3.41H8.4v5.1h1.66c7.37,0,8.34-3.53,8.34-8.75v-22Zm0-7.5H11.68v5.11H18.4V9Z"/><polygon class="cls-2" points="21.15 16.63 28.03 39.1 34.27 39.1 38.03 24.57 38.12 24.57 41.88 39.1 48.12 39.1 55 16.63 48.08 16.63 44.72 30.6 44.63 30.6 40.91 16.63 35.24 16.63 31.56 30.6 31.48 30.6 28.11 16.63 21.15 16.63 21.15 16.63"/><polygon class="cls-2" points="20.75 55.47 23.44 55.47 23.44 52.78 20.75 52.78 20.75 55.47 20.75 55.47"/><path class="cls-2" d="M27.29,55.86h1.42V49.77a4,4,0,0,1,1-3,3.53,3.53,0,0,1,4.82,0,4.16,4.16,0,0,1,1,3v6.09H37V49.77a5.25,5.25,0,0,0-1.38-3.91,4.61,4.61,0,0,0-3.5-1.36,4,4,0,0,0-3.4,1.7h0V44.79H27.29V55.86Z"/><path class="cls-2" d="M49.33,50.72a5.85,5.85,0,0,0-.85-3.51,5.76,5.76,0,0,0-4.94-2.83,5.85,5.85,0,0,0-5.75,5.83A5.77,5.77,0,0,0,49,52.11h-1.5a4.2,4.2,0,0,1-4,2.61,4.39,4.39,0,0,1-4.29-4ZM39.25,49.44a4.36,4.36,0,0,1,8.64,0Z"/><polygon class="cls-2" points="50.84 55.8 52.26 55.8 52.26 46.01 54.91 46.01 54.91 44.73 52.26 44.73 52.26 40.82 50.84 40.82 50.84 44.73 48.51 44.73 48.51 46.01 50.84 46.01 50.84 55.8 50.84 55.8"/></g></svg>