<svg xmlns="http://www.w3.org/2000/svg" viewBox="0 0 32 32"><defs><style>.cls-1{fill:#fff;}.cls-2{fill:#f6ae2d;}.cls-3{fill:#000842;}</style></defs><g id="Ebene_10" data-name="Ebene 10"><rect class="cls-1" width="32" height="32"/></g><g id="reserve_time" data-name="reserve time"><circle class="cls-2" cx="16" cy="16" r="10"/><path class="cls-3" d="M16.89,15.31H21.6a.93.93,0,1,1,0,1.86H15.9a1,1,0,0,1-1-.93V8.18a1,1,0,0,1,2,0Z"/><path class="cls-2" d="M19,4.92a.77.77,0,0,1,.39-1.48.78.78,0,0,1,.55.94A.77.77,0,0,1,19,4.92Z"/><circle class="cls-2" cx="22.12" cy="5.4" r="0.76"/><circle class="cls-2" cx="24.65" cy="7.35" r="0.76"/><circle class="cls-2" cx="26.6" cy="9.88" r="0.76"/><path class="cls-2" d="M27.08,13a.77.77,0,0,1,.54-.94.78.78,0,0,1,.94.55.77.77,0,0,1-1.48.39Z"/><circle class="cls-3" cx="28.24" cy="16" r="0.76"/><path class="cls-3" d="M29,16a.77.77,0,0,0-1.53,0A11.47,11.47,0,1,1,16,4.53.77.77,0,0,0,16,3,13,13,0,0,0,3,15.94H3V16A13,13,0,0,0,16,29h0A13.31,13.31,0,0,0,29,16Z"/></g></svg>