<svg xmlns="http://www.w3.org/2000/svg" viewBox="0 0 32 32"><defs><style>.cls-1{fill:#fff;}.cls-2{fill:#000842;}.cls-3{fill:#f6ae2d;stroke:#fff;stroke-miterlimit:10;}</style></defs><g id="Ebene_10" data-name="Ebene 10"><rect class="cls-1" width="32" height="32"/></g><g id="reserve"><path class="cls-2" d="M14.35,12.9H7.56c-2,0-3.63,2-3.63,4.33V30H18V17.23C18,14.86,16.35,12.9,14.35,12.9Z"/><path class="cls-2" d="M11,2A4.91,4.91,0,0,0,6,6.83a4.91,4.91,0,0,0,5,4.83,4.9,4.9,0,0,0,5-4.83A4.9,4.9,0,0,0,11,2Z"/><path class="cls-2" d="M25.37,15.11h-6.8c-2,0-3.62,1.95-3.62,4.33V30H29V19.44C29,17.06,27.36,15.11,25.37,15.11Z"/><path class="cls-2" d="M22.08,4.07a4.92,4.92,0,0,0-5,4.84,5,5,0,0,0,10,0A4.91,4.91,0,0,0,22.08,4.07Z"/><path class="cls-3" d="M15.35,23.41l-2.17-2.89a1.77,1.77,0,0,0-2.6,2.41l3.35,4.16a1.75,1.75,0,0,0,2.48.07l7-7a1.74,1.74,0,1,0-2.36-2.56Z"/></g></svg>